{"title":"Mad Max: Fury Road 2015 720p CAM x264 AC3 TiTAN","uid":11952562,"size":2111388869,"categoryP":"video","categoryS":"other","magnet":"?xt=urn:btih:367c70de858e0587c96fbaf63e15cc914db00e7f&amp;dn=Mad+Max%3A+Fury+Road+2015+720p+CAM+x264+AC3+TiTAN&amp;tr=udp%3A%2F%2Ftracker.openbittorrent.com%3A80&amp;tr=udp%3A%2F%2Fopen.demonii.com%3A1337&amp;tr=udp%3A%2F%2Ftracker.coppersurfer.tk%3A6969&amp;tr=udp%3A%2F%2Fexodus.desync.com%3A6969","seeders":12,"leechers":0,"uploader":"SS132203","files":3,"time":1432222444,"description":"Mad Max: Fury Road 2015 720p CAM x264 AC3 TiTAN\n &lt;a href=&quot;\nhttp://imgsparrow.co/image/bG&quot; rel=&quot;nofollow&quot; target=&quot;_NEW&quot;&gt;\nhttp://imgsparrow.co/image/bG&lt;/a&gt;\n\nInfo : - \n\nAll Credit Goes To TiTAN\n &lt;a href=&quot;\nhttp://www.imdb.com/title/tt1392190/&quot; rel=&quot;nofollow&quot; target=&quot;_NEW&quot;&gt;\nhttp://www.imdb.com/title/tt1392190/&lt;/a&gt;\n\nGeneral\n\nRan vid thru as many filters as i could to make as nice as possible, came out pretty well, sound is good in non action scenes.. but not great in action scenes.. otherwise good first cam, enjoy or wait for better.\n\nFormat                                   : Matroska\nFormat version                           : Version 2\nFile size                                : 1.97 GiB\nDuration                                 : 1h 52mn\nOverall bit rate mode                    : Variable\nOverall bit rate                         : 2 494 Kbps\nEncoded date                             : UTC 2015-05-21 01:42:40\n\nVideo\nID                                       : 1\nFormat                                   : AVC\nFormat/Info                              : Advanced Video Codec\nFormat profile                           : &lt;a class=&quot;__cf_email__&quot; href=&quot;/cdn-cgi/l/email-protection&quot; data-cfemail=&quot;98d0f1fff0d8d4acb6a9&quot;&gt;[email&amp;#160;protected]&lt;/a&gt;&lt;script data-cfhash='f9e31' type=&quot;text/javascript&quot;&gt;\n/* &lt;![CDATA[ */!function(){try{var t=&quot;currentScript&quot;in document?document.currentScript:function(){for(var t=document.getElementsByTagName(&quot;script&quot;),e=t.length;e--;)if(t[e].getAttribute(&quot;data-cfhash&quot;))return t[e]}();if(t&amp;&amp;t.previousSibling){var e,r,n,i,c=t.previousSibling,a=c.getAttribute(&quot;data-cfemail&quot;);if(a){for(e=&quot;&quot;,r=parseInt(a.substr(0,2),16),n=2;a.length-n;n+=2)i=parseInt(a.substr(n,2),16)^r,e+=String.fromCharCode(i);e=document.createTextNode(e),c.parentNode.replaceChild(e,c)}t.parentNode.removeChild(t);}}catch(u){}}()/* ]]&gt; */&lt;/script&gt;\nFormat settings, CABAC                   : Yes\nFormat settings, ReFrames                : 3 frames\nCodec ID                                 : V_MPEG4/ISO/AVC\nDuration                                 : 1h 52mn\nBit rate mode                            : Variable\nBit rate                                 : 2 300 Kbps\nMaximum bit rate                         : 40.0 Mbps\nWidth                                    : 1 280 pixels\nHeight                                   : 720 pixels\nDisplay aspect ratio                     : 16:9\nFrame rate mode                          : Constant\nFrame rate                               : 23.976 fps\nColor space                              : YUV\nChroma subsampling                       : 4:2:0\nBit depth                                : 8 bits\nScan type                                : Progressive\nBits/(Pixel*Frame)                       : 0.104\nStream size                              : 1.78 GiB (90%)\nDefault                                  : Yes\nForced                                   : No\nColor primaries                          : BT.709\nTransfer characteristics                 : BT.709\nMatrix coefficients                      : BT.709\n\nAudio\nID                                       : 2\nFormat                                   : AC-3\nFormat/Info                              : Audio Coding 3\nMode extension                           : CM (complete main)\nFormat settings, Endianness              : Big\nCodec ID                                 : A_AC3\nDuration                                 : 1h 52mn\nBit rate mode                            : Constant\nBit rate                                 : 192 Kbps\nChannel(s)                               : 2 channels\nChannel positions                        : Front: L R\nSampling rate                            : 44.1 KHz\nBit depth                                : 16 bits\nCompression mode                         : Lossy\nDelay relative to video                  : 500ms\nStream size                              : 155 MiB (8%)\nDefault                                  : Yes\nForced                                   : No\n\nScreens : - \n &lt;a href=&quot;\nhttp://imgsparrow.co/image/be&quot; rel=&quot;nofollow&quot; target=&quot;_NEW&quot;&gt;\nhttp://imgsparrow.co/image/be&lt;/a&gt; &lt;a href=&quot;\nhttp://imgsparrow.co/image/bg&quot; rel=&quot;nofollow&quot; target=&quot;_NEW&quot;&gt;\nhttp://imgsparrow.co/image/bg&lt;/a&gt; &lt;a href=&quot;\nhttp://imgsparrow.co/image/bq&quot; rel=&quot;nofollow&quot; target=&quot;_NEW&quot;&gt;\nhttp://imgsparrow.co/image/bq&lt;/a&gt; &lt;a href=&quot;\nhttp://imgsparrow.co/image/bz&quot; rel=&quot;nofollow&quot; target=&quot;_NEW&quot;&gt;\nhttp://imgsparrow.co/image/bz&lt;/a&gt; &lt;a href=&quot;\nhttp://imgsparrow.co/image/b7&quot; rel=&quot;nofollow&quot; target=&quot;_NEW&quot;&gt;\nhttp://imgsparrow.co/image/b7&lt;/a&gt; &lt;a href=&quot;\nhttp://imgsparrow.co/image/bk&quot; rel=&quot;nofollow&quot; target=&quot;_NEW&quot;&gt;\nhttp://imgsparrow.co/image/bk&lt;/a&gt; &lt;a href=&quot;\nhttp://imgsparrow.co/image/bn&quot; rel=&quot;nofollow&quot; target=&quot;_NEW&quot;&gt;\nhttp://imgsparrow.co/image/bn&lt;/a&gt; &lt;a href=&quot;\nhttp://imgsparrow.co/image/by&quot; rel=&quot;nofollow&quot; target=&quot;_NEW&quot;&gt;\nhttp://imgsparrow.co/image/by&lt;/a&gt;\n &lt;a href=&quot;\nhttp://imgsparrow.co/image/N2&quot; rel=&quot;nofollow&quot; target=&quot;_NEW&quot;&gt;\nhttp://imgsparrow.co/image/N2&lt;/a&gt;","torrent":{"xt":"urn:btih:367c70de858e0587c96fbaf63e15cc914db00e7f","amp;dn":"Mad+Max%3A+Fury+Road+2015+720p+CAM+x264+AC3+TiTAN","amp;tr":["udp%3A%2F%2Ftracker.openbittorrent.com%3A80","udp%3A%2F%2Fopen.demonii.com%3A1337","udp%3A%2F%2Ftracker.coppersurfer.tk%3A6969","udp%3A%2F%2Fexodus.desync.com%3A6969"],"infoHash":"367c70de858e0587c96fbaf63e15cc914db00e7f","infoHashBuffer":{"type":"Buffer","data":[54,124,112,222,133,142,5,135,201,111,186,246,62,21,204,145,77,176,14,127]},"announce":[],"urlList":[]}}